<svg width="52" height="52" viewBox="0 0 52 52" fill="none" xmlns="http://www.w3.org/2000/svg">
<rect x="0.805786" y="0.90271" width="50.88" height="50.88" rx="7.26857" fill="#274E5A"/>
<path d="M32.9239 19.6858C27.4231 19.6858 23.4683 23.4528 23.4683 30.3411C23.4683 35.0768 25.4097 36.0455 25.4097 37.6599C25.4097 38.3057 25.0142 39.3102 23.4683 39.3102H17.7158C16.1698 39.3102 15.7743 38.3057 15.7743 37.6599C15.7743 36.0455 17.7158 35.0768 17.7158 30.3411C17.7158 25.8566 15.3429 24.8161 15.3429 23.0223C15.3429 21.5155 17.4641 20.798 19.2618 20.798C21.2032 20.798 22.3897 21.5155 23.0009 23.0223C25.0142 18.3225 28.4298 13.6227 32.1329 13.6227C34.2182 13.6227 36.1956 15.1295 36.1956 17.1027C36.1956 18.5736 34.9013 19.6858 32.9239 19.6858ZM28.6455 23.0223C28.6455 21.5155 30.7667 20.798 32.5644 20.798C35.5844 20.798 36.7709 22.52 36.7709 26.1794V30.3411C36.7709 35.0768 38.7123 36.0455 38.7123 37.6599C38.7123 38.3057 38.3168 39.3102 36.7709 39.3102H31.0184C29.4724 39.3102 29.0769 38.3057 29.0769 37.6599C29.0769 36.0455 31.0184 35.0768 31.0184 30.3411C31.0184 25.8566 28.6455 24.8161 28.6455 23.0223Z" fill="#F7F8FC"/>
</svg>
